<?xml version="1.0" encoding="utf-8"?>
<!-- Generator: Adobe Illustrator 23.0.1, SVG Export Plug-In . SVG Version: 6.00 Build 0)  -->
<svg version="1.1" id="Layer_1" xmlns="http://www.w3.org/2000/svg" xmlns:xlink="http://www.w3.org/1999/xlink" x="0px" y="0px"
	 viewBox="0 0 384.44 128" style="enable-background:new 0 0 384.44 128;" xml:space="preserve">
<style type="text/css">
	.st0{fill:#E2752A;}
	.st1{fill:#3F5866;}
</style>
<g>
	<path class="st0" d="M108.6,57.78c0.28,2.03,0.44,4.11,0.44,6.22c0,24.87-20.16,45.04-45.04,45.04S18.96,88.87,18.96,64
		S39.13,18.96,64,18.96c3.18,0,6.28,0.33,9.28,0.96c2.82-6.79,8.18-12.24,14.91-15.18C80.72,1.69,72.56,0,64,0C28.65,0,0,28.65,0,64
		s28.65,64,64,64s64-28.65,64-64c0-7-1.14-13.74-3.22-20.04C121.4,50.43,115.61,55.43,108.6,57.78z"/>
</g>
<g>
	<circle class="st0" cx="99.56" cy="30.81" r="24.89"/>
</g>
<g>
	<path class="st1" d="M137.25,88.98c-0.14-0.25-0.1-0.55,0.13-0.88l13.61-19.99c0.11-0.17,0.11-0.34,0-0.5l-13.61-19.91
		c-0.11-0.22-0.17-0.42-0.17-0.59c0-0.45,0.28-0.67,0.84-0.67h8.23c0.5,0,0.9,0.22,1.18,0.67l8.74,12.94
		c0.11,0.11,0.22,0.17,0.34,0.17c0.11,0,0.2-0.06,0.25-0.17l8.74-12.94c0.28-0.45,0.67-0.67,1.18-0.67h8.82
		c0.39,0,0.66,0.13,0.8,0.38c0.14,0.25,0.1,0.55-0.13,0.88L162.58,67.6c-0.06,0.17-0.06,0.34,0,0.5l13.61,19.99
		c0.11,0.22,0.17,0.42,0.17,0.59c0,0.45-0.28,0.67-0.84,0.67h-8.23c-0.5,0-0.9-0.22-1.18-0.67l-8.74-12.94
		c-0.06-0.11-0.14-0.17-0.25-0.17c-0.11,0-0.22,0.06-0.34,0.17l-8.74,12.94c-0.28,0.45-0.67,0.67-1.18,0.67h-8.82
		C137.66,89.36,137.39,89.23,137.25,88.98z"/>
	<path class="st1" d="M189.33,105.78c-0.11-0.2-0.17-0.43-0.17-0.71v-6.05c0-0.28,0.1-0.52,0.29-0.71c0.2-0.2,0.43-0.29,0.71-0.29
		h0.08c2.3-0.06,4.09-0.29,5.38-0.71c1.29-0.42,2.35-1.22,3.19-2.39c0.84-1.18,1.6-2.94,2.27-5.29c0.05-0.11,0.05-0.28,0-0.5
		l-13.86-41.58c-0.06-0.11-0.08-0.25-0.08-0.42c0-0.5,0.28-0.76,0.84-0.76h8.23c0.62,0,1.01,0.28,1.18,0.84l8.4,29.57
		c0.05,0.17,0.14,0.25,0.25,0.25c0.11,0,0.2-0.08,0.25-0.25l8.4-29.57c0.17-0.56,0.56-0.84,1.18-0.84h7.98
		c0.34,0,0.57,0.1,0.71,0.29c0.14,0.2,0.15,0.49,0.04,0.88l-14.78,44.18c-1.4,3.98-2.77,6.94-4.12,8.9c-1.34,1.96-3.18,3.36-5.5,4.2
		c-2.32,0.84-5.62,1.26-9.87,1.26h-0.59C189.58,106.07,189.44,105.98,189.33,105.78z"/>
	<path class="st1" d="M261.99,46.73c0.2-0.2,0.43-0.29,0.71-0.29h7.73c0.28,0,0.52,0.1,0.71,0.29c0.2,0.2,0.29,0.43,0.29,0.71V86.5
		c0,7-2,12-6.01,14.99c-4,3-9.25,4.49-15.75,4.49c-1.74,0-3.44-0.08-5.12-0.25c-0.62-0.06-0.92-0.42-0.92-1.09l0.25-6.89
		c0-0.62,0.39-0.92,1.18-0.92c1.62,0.17,3.08,0.25,4.37,0.25c4.2,0,7.29-0.83,9.28-2.48c1.99-1.65,2.98-4.44,2.98-8.36v-0.67
		c0-0.17-0.06-0.26-0.17-0.29c-0.11-0.03-0.22,0.01-0.34,0.13c-2.3,2.46-5.54,3.7-9.74,3.7c-3.64,0-6.97-0.92-10-2.77
		c-3.02-1.85-5.12-4.67-6.3-8.48c-0.73-2.63-1.09-6.02-1.09-10.16c0-4.65,0.45-8.2,1.34-10.67c1.12-3.42,3.05-6.15,5.8-8.19
		c2.74-2.04,5.96-3.07,9.66-3.07c4.42,0,7.87,1.29,10.33,3.86c0.11,0.17,0.22,0.22,0.34,0.17c0.11-0.06,0.17-0.17,0.17-0.34v-2.02
		C261.7,47.16,261.79,46.93,261.99,46.73z M261.57,72.35c0.08-0.98,0.13-2.56,0.13-4.75c0-2.13-0.04-3.65-0.13-4.58
		s-0.27-1.83-0.55-2.73c-0.45-1.85-1.36-3.33-2.73-4.45c-1.37-1.12-3.12-1.68-5.25-1.68c-2.02,0-3.72,0.56-5.12,1.68
		c-1.4,1.12-2.41,2.6-3.02,4.45c-0.67,1.57-1.01,4.03-1.01,7.39c0,3.47,0.28,5.91,0.84,7.31c0.56,1.79,1.58,3.26,3.07,4.41
		c1.48,1.15,3.26,1.72,5.33,1.72c2.18,0,3.95-0.56,5.29-1.68c1.34-1.12,2.24-2.58,2.69-4.37C261.33,74.24,261.49,73.33,261.57,72.35
		z"/>
	<path class="st1" d="M323.45,67.77l-0.08,2.6c0,0.67-0.34,1.01-1.01,1.01h-26.29c-0.28,0-0.42,0.14-0.42,0.42
		c0.17,1.85,0.42,3.11,0.76,3.78c1.34,4.03,4.62,6.08,9.83,6.13c3.81,0,6.83-1.57,9.07-4.71c0.22-0.34,0.5-0.5,0.84-0.5
		c0.22,0,0.42,0.08,0.59,0.25l5.21,4.29c0.5,0.39,0.59,0.84,0.25,1.34c-1.74,2.46-4.05,4.37-6.93,5.71
		c-2.88,1.34-6.09,2.02-9.62,2.02c-4.37,0-8.08-0.98-11.13-2.94c-3.05-1.96-5.28-4.7-6.68-8.23c-1.29-3.02-1.93-7.22-1.93-12.6
		c0-3.25,0.34-5.88,1.01-7.9c1.12-3.92,3.23-7.01,6.34-9.28c3.11-2.27,6.85-3.4,11.21-3.4c11.03,0,17.25,5.77,18.65,17.3
		C323.34,64.47,323.45,66.04,323.45,67.77z M299.3,55.72c-1.37,1.04-2.34,2.48-2.9,4.33c-0.34,0.95-0.56,2.18-0.67,3.7
		c-0.11,0.28,0,0.42,0.34,0.42h17.05c0.28,0,0.42-0.14,0.42-0.42c-0.11-1.4-0.28-2.46-0.5-3.19c-0.5-2.02-1.5-3.58-2.98-4.7
		c-1.48-1.12-3.35-1.68-5.59-1.68C302.39,54.16,300.67,54.68,299.3,55.72z"/>
	<path class="st1" d="M369.11,49.79c2.72,2.69,4.07,6.36,4.07,11v27.55c0,0.28-0.1,0.52-0.29,0.71c-0.2,0.2-0.43,0.29-0.71,0.29
		h-7.73c-0.28,0-0.52-0.1-0.71-0.29c-0.2-0.2-0.29-0.43-0.29-0.71V62.81c0-2.58-0.73-4.66-2.18-6.26c-1.46-1.6-3.39-2.39-5.8-2.39
		c-2.41,0-4.35,0.78-5.84,2.35c-1.48,1.57-2.23,3.64-2.23,6.22v25.62c0,0.28-0.1,0.52-0.29,0.71c-0.2,0.2-0.43,0.29-0.71,0.29h-7.73
		c-0.28,0-0.52-0.1-0.71-0.29c-0.2-0.2-0.29-0.43-0.29-0.71V47.44c0-0.28,0.1-0.52,0.29-0.71c0.2-0.2,0.43-0.29,0.71-0.29h7.73
		c0.28,0,0.52,0.1,0.71,0.29c0.2,0.2,0.29,0.43,0.29,0.71v2.69c0,0.17,0.05,0.28,0.17,0.34c0.11,0.06,0.2,0,0.25-0.17
		c2.3-3.02,5.77-4.54,10.42-4.54C362.77,45.76,366.4,47.11,369.11,49.79z"/>
</g>
</svg>
