<?xml version="1.0" encoding="utf-8"?>
<!-- Generator: Adobe Illustrator 23.0.1, SVG Export Plug-In . SVG Version: 6.00 Build 0)  -->
<svg version="1.1" id="Layer_1" xmlns="http://www.w3.org/2000/svg" xmlns:xlink="http://www.w3.org/1999/xlink" x="0px" y="0px"
	 viewBox="0 0 679.8 80.2" style="enable-background:new 0 0 679.8 80.2;" xml:space="preserve">
<style type="text/css">
	.st0{fill:#999999;}
</style>
<title>BG_logo_orange</title>
<path class="st0" d="M529,21c-11.9,0-21.9,7.6-21.9,20.5c0,11.9,8.4,17.8,17.5,17.8c2.4,0,4.8-0.4,7.1-1.1v7.9
	c-0.1,3.9-1,6.1-4.4,6.1c-1.5,0-3.4,0-6,0v7.9c4,0,5,0,7.8,0c5.7,0,11.6-3.5,11.9-12.9V23.7C538.1,22,534,21,529,21z M526.7,51.5
	c-6.4,0-10.1-5-10.1-10.8c0-6.8,4.6-12.1,10.8-12.1c1.6,0,3.1,0.2,4.6,0.7v21C530.2,51.1,528.5,51.5,526.7,51.5z"/>
<path class="st0" d="M320.7,58.3l-0.4-3.6c-3.1,2.8-7.1,4.4-11.2,4.4c-4.8,0-12.4-2.5-12.4-14.2V21.6h9.3v22.6
	c0,4.6,2.1,7.4,6.6,7.4c2.6-0.1,5.1-1.2,7-3v-27h9.3v26.5c0,5.7,0.1,8.3,0.7,10.2L320.7,58.3z"/>
<path class="st0" d="M358.7,30.2c-1.3-0.8-2.8-1.2-4.3-1.2c-2.2,0-4.6,1-7,3.3v26H338V21.6h7.8l1,3.9c3.8-3.3,6.7-4.7,10.1-4.7
	c1.8,0,3.6,0.5,5.1,1.6L358.7,30.2z"/>
<path class="st0" d="M390.1,58.3V36.8c0-3.8-0.7-8-5.4-8c-3.3,0-6.4,1.7-9.3,3.9v25.6h-9.3V21.6h7.9l1,4c4-2.9,7.9-4.8,12.9-4.8
	c5.6,0,11.5,3.3,11.5,13.2v24.3L390.1,58.3z"/>
<path class="st0" d="M413.6,16c-3.1-0.1-5.5-2.7-5.4-5.8c0.1-3.1,2.7-5.5,5.8-5.4c3,0.1,5.4,2.6,5.4,5.6
	C419.4,13.5,416.8,16,413.6,16C413.6,16,413.6,16,413.6,16z M409,58.3V21.6h9.3v36.6L409,58.3z"/>
<path class="st0" d="M452,58.3V36.8c0-3.8-0.7-8-5.4-8c-3.2,0-6.4,1.7-9.3,3.9v25.6H428V21.6h7.9l1,4c4-2.9,7.9-4.8,12.9-4.8
	c5.6,0,11.5,3.3,11.5,13.2v24.3L452,58.3z"/>
<path class="st0" d="M613.3,59.3c-4.8,0.2-9.4-1-13.6-3.4l3-6.8c2.9,2.1,6.4,3.2,9.9,3.3c3.8,0,6.3-1.4,6.3-3.9
	c0-6.6-16.9-4.1-16.9-16.6c0-6.4,5-10.8,13.9-10.8c3.7-0.1,7.3,0.5,10.8,1.9v7.8c-3.3-1.5-6.8-2.3-10.4-2.4c-3.3,0-5.2,1-5.2,3.2
	c0,5.8,17.2,3.9,17.2,16.5C628.3,56.2,621.1,59.3,613.3,59.3z"/>
<path class="st0" d="M645.7,59.3c-4.8,0.2-9.4-1-13.6-3.4l3-6.8c2.9,2,6.3,3.2,9.8,3.3c3.8,0,6.3-1.4,6.3-3.9
	c0-6.6-16.9-4.1-16.9-16.6c0-6.4,5-10.8,13.9-10.8c3.7-0.1,7.3,0.5,10.8,1.9v7.8c-3.2-1.5-6.7-2.3-10.3-2.4c-3.2,0-5.2,1-5.2,3.2
	c0,5.8,17.2,3.9,17.2,16.5C660.7,56.2,653.5,59.3,645.7,59.3z"/>
<path class="st0" d="M583.9,21.4c5,0,9.1,0.9,12.1,2.6v35.3h-8.4l-1-1.5c-2.1,1.3-4.6,2-7.1,1.9c-9.1,0-17.5-5.9-17.5-17.8
	C562.1,29,572.1,21.4,583.9,21.4z M581.5,51.8c1.8,0,3.5-0.4,5.1-1.1v-21c-1.5-0.5-3-0.7-4.6-0.7c-6.2,0-10.8,5.3-10.8,12.1
	C571.4,46.8,575.2,51.8,581.5,51.8L581.5,51.8z"/>
<path class="st0" d="M548,58.8V3.9h9.3v54.9H548z"/>
<path class="st0" d="M487.7,21c-11.9,0-21.9,7.6-21.9,20.5c0,11.9,8.4,17.8,17.5,17.8c2.4,0,4.8-0.4,7.1-1.1v7.9
	c-0.1,3.9-1,6.1-4.4,6.1c-1.5,0-3.4,0-6,0v7.9c4,0,5,0,7.8,0c5.8,0,11.6-3.5,11.9-12.9V23.7C496.8,22,492.7,21,487.7,21z
	 M485.3,51.5c-6.4,0-10.1-5-10.1-10.8c0-6.8,4.6-12.1,10.8-12.1c1.6,0,3.1,0.2,4.6,0.7v21C488.8,51.1,487.1,51.5,485.3,51.5
	L485.3,51.5z"/>
<path class="st0" d="M267.5,59.1c11.9,0,21.9-7.6,21.9-20.5c0-11.9-8.4-17.8-17.5-17.8c-2.4,0-4.8,0.4-7.1,1.1V14
	c0.1-3.9,1-6.1,4.4-6.1c1.5,0,3.4,0,6,0V0c-4,0-5,0-7.8,0c-5.8,0-11.6,3.5-11.9,12.9l0,0v43.6C258.5,58.2,262.6,59.1,267.5,59.1z
	 M269.9,28.7c6.4,0,10.1,5,10.1,10.8c0,6.8-4.6,12.1-10.8,12.1c-1.6,0-3.1-0.2-4.6-0.7v-21C266.4,29.1,268.2,28.7,269.9,28.7
	L269.9,28.7z"/>
<path class="st0" d="M679.8,21c0.1,3.7-2.9,6.8-6.6,6.9c-3.7,0.1-6.8-2.9-6.9-6.6c-0.1-3.7,2.9-6.8,6.6-6.9c0.1,0,0.2,0,0.2,0
	C676.8,14.3,679.8,17.3,679.8,21C679.8,21,679.8,21,679.8,21z M668,21c-0.1,2.8,2.2,5.2,5,5.3c0,0,0.1,0,0.1,0c2.8,0,5-2.2,5-5
	c0-0.1,0-0.1,0-0.2c0.1-2.8-2.1-5.2-4.9-5.3c-2.8-0.1-5.2,2.1-5.3,4.9C667.9,20.7,667.9,20.9,668,21L668,21z M672,24.4h-1.5v-6.6
	c0.8-0.1,1.7-0.2,2.5-0.2c0.8-0.1,1.6,0.1,2.2,0.5c0.4,0.3,0.7,0.9,0.7,1.4c0,0.8-0.6,1.4-1.4,1.6v0.1c0.6,0.2,1,0.7,1.2,1.6
	c0.1,0.6,0.2,1.1,0.5,1.6h-1.6c-0.3-0.5-0.4-1-0.5-1.6c-0.1-0.7-0.5-1-1.4-1H672L672,24.4z M672,20.7h0.7c0.8,0,1.5-0.3,1.5-1
	s-0.4-1-1.4-1c-0.3,0-0.6,0-0.8,0.1V20.7z"/>
<g>
	<path class="st0" d="M25.1,45.9c0,3.9-0.9,7.1-2.7,9.4c-1.8,2.3-4.2,3.5-7.2,3.5c-2.8,0-5-0.9-6.7-2.7v12H2.9V32.9h5.2l0.2,2.6
		c1.7-2,3.9-3,6.8-3c3.1,0,5.5,1.2,7.3,3.5s2.6,5.5,2.6,9.6V45.9z M19.5,45.4c0-2.5-0.5-4.5-1.5-6s-2.4-2.2-4.3-2.2
		c-2.3,0-4,1-5,2.9v11.2c1,2,2.7,3,5.1,3c1.8,0,3.2-0.7,4.3-2.2S19.5,48.4,19.5,45.4z"/>
	<path class="st0" d="M28.5,45.4c0-2.5,0.5-4.7,1.5-6.7s2.4-3.5,4.1-4.6s3.8-1.6,6.1-1.6c3.4,0,6.2,1.1,8.3,3.3s3.3,5.1,3.5,8.8
		l0,1.3c0,2.5-0.5,4.7-1.4,6.7c-1,2-2.3,3.5-4.1,4.6s-3.9,1.6-6.2,1.6c-3.6,0-6.4-1.2-8.6-3.6c-2.1-2.4-3.2-5.6-3.2-9.5V45.4z
		 M34.2,45.9c0,2.6,0.5,4.7,1.6,6.1s2.6,2.2,4.5,2.2s3.4-0.8,4.5-2.2s1.6-3.7,1.6-6.6c0-2.6-0.6-4.6-1.7-6.1S42.1,37,40.2,37
		c-1.9,0-3.3,0.7-4.4,2.2S34.2,42.9,34.2,45.9z"/>
	<path class="st0" d="M78,50.4l4-17.5h5.6l-6.9,25.4h-4.7l-5.4-17.4l-5.3,17.4h-4.7l-6.9-25.4h5.6l4.1,17.3l5.2-17.3h4.3L78,50.4z"
		/>
	<path class="st0" d="M101.1,58.8c-3.6,0-6.5-1.1-8.8-3.4c-2.2-2.3-3.4-5.3-3.4-9.1v-0.7c0-2.5,0.5-4.8,1.5-6.8s2.3-3.5,4.1-4.7
		s3.7-1.7,5.9-1.7c3.5,0,6.1,1.1,8,3.3s2.8,5.3,2.8,9.4v2.3H94.7c0.2,2.1,0.9,3.8,2.1,5s2.8,1.8,4.6,1.8c2.6,0,4.7-1.1,6.4-3.2
		l3.1,2.9c-1,1.5-2.4,2.7-4.1,3.5S103.2,58.8,101.1,58.8z M100.4,37c-1.6,0-2.8,0.5-3.8,1.6s-1.6,2.6-1.8,4.6h10.9v-0.4
		c-0.1-1.9-0.6-3.3-1.5-4.3S102,37,100.4,37z"/>
	<path class="st0" d="M128.8,38.1c-0.8-0.1-1.5-0.2-2.3-0.2c-2.6,0-4.4,1-5.3,3v17.3h-5.7V32.9h5.4l0.1,2.8c1.4-2.2,3.3-3.3,5.7-3.3
		c0.8,0,1.5,0.1,2,0.3L128.8,38.1z"/>
	<path class="st0" d="M142.9,58.8c-3.6,0-6.5-1.1-8.8-3.4c-2.2-2.3-3.4-5.3-3.4-9.1v-0.7c0-2.5,0.5-4.8,1.5-6.8s2.3-3.5,4.1-4.7
		s3.7-1.7,5.9-1.7c3.5,0,6.1,1.1,8,3.3s2.8,5.3,2.8,9.4v2.3h-16.6c0.2,2.1,0.9,3.8,2.1,5s2.8,1.8,4.6,1.8c2.6,0,4.7-1.1,6.4-3.2
		l3.1,2.9c-1,1.5-2.4,2.7-4.1,3.5S145,58.8,142.9,58.8z M142.3,37c-1.6,0-2.8,0.5-3.8,1.6s-1.6,2.6-1.8,4.6h10.9v-0.4
		c-0.1-1.9-0.6-3.3-1.5-4.3S143.8,37,142.3,37z"/>
	<path class="st0" d="M156.3,45.4c0-3.9,0.9-7,2.7-9.4s4.2-3.6,7.3-3.6c2.7,0,4.9,0.9,6.5,2.8v-13h5.7v36h-5.2l-0.3-2.6
		c-1.7,2.1-4,3.1-6.8,3.1c-3,0-5.4-1.2-7.2-3.6C157.2,52.8,156.3,49.5,156.3,45.4z M162,45.9c0,2.6,0.5,4.6,1.5,6s2.4,2.2,4.2,2.2
		c2.3,0,4-1,5.1-3.1V40.2c-1-2-2.7-3-5.1-3c-1.8,0-3.3,0.7-4.3,2.2S162,43,162,45.9z"/>
	<path class="st0" d="M218.6,45.9c0,3.9-0.9,7.1-2.6,9.4c-1.8,2.3-4.2,3.5-7.3,3.5c-3,0-5.3-1.1-6.9-3.2l-0.3,2.7h-5.2v-36h5.7v13.1
		c1.6-1.9,3.9-2.9,6.6-2.9c3.1,0,5.5,1.1,7.3,3.4s2.6,5.5,2.6,9.6V45.9z M212.9,45.4c0-2.8-0.5-4.8-1.5-6.2s-2.4-2.1-4.2-2.1
		c-2.5,0-4.2,1.1-5.2,3.2v10.5c1,2.2,2.8,3.3,5.2,3.3c1.8,0,3.2-0.7,4.1-2s1.5-3.3,1.5-6V45.4z"/>
	<path class="st0" d="M231.1,50.1l5.2-17.2h6.1l-10.1,29.2c-1.5,4.3-4.2,6.4-7.9,6.4c-0.8,0-1.7-0.1-2.7-0.4v-4.4l1.1,0.1
		c1.4,0,2.5-0.3,3.2-0.8c0.7-0.5,1.3-1.4,1.7-2.6l0.8-2.2l-8.9-25.2h6.1L231.1,50.1z"/>
</g>
</svg>
